<?xml version="1.0" encoding="UTF-8"?>
<svg width="100" height="100" viewBox="0 0 100 100" xmlns="http://www.w3.org/2000/svg">
  <!-- Background circle (optional, for better visibility) -->
  <circle cx="50" cy="50" r="45" fill="white" fill-opacity="0.1"/>
  
  <!-- Air quality gauge - semicircle with gradient -->
  <defs>
    <linearGradient id="qualityGradient" x1="0%" y1="0%" x2="100%" y2="0%">
      <stop offset="0%" stop-color="#2ECC71" /> <!-- Green (Good) -->
      <stop offset="50%" stop-color="#F1C40F" /> <!-- Yellow (Moderate) -->
      <stop offset="100%" stop-color="#E74C3C" /> <!-- Red (Poor) -->
    </linearGradient>
  </defs>
  
  <!-- Gauge background (gray track) -->
  <path d="M10,70 A 40,40 0 0,1 90,70" 
        fill="none" 
        stroke="#95A5A6" 
        stroke-width="8" 
        stroke-linecap="round"/>
  
  <!-- Gauge colored section (quality indicator) -->
  <path d="M10,70 A 40,40 0 0,1 90,70" 
        fill="none" 
        stroke="url(#qualityGradient)" 
        stroke-width="7" 
        stroke-linecap="round"/>
  
  <!-- Gauge markers -->
  <line x1="10" y1="70" x2="15" y2="65" stroke="#95A5A6" stroke-width="2" stroke-linecap="round"/>
  <line x1="30" y1="47" x2="35" y2="42" stroke="#95A5A6" stroke-width="2" stroke-linecap="round"/>
  <line x1="50" y1="40" x2="50" y2="35" stroke="#95A5A6" stroke-width="2" stroke-linecap="round"/>
  <line x1="70" y1="47" x2="65" y2="42" stroke="#95A5A6" stroke-width="2" stroke-linecap="round"/>
  <line x1="90" y1="70" x2="85" y2="65" stroke="#95A5A6" stroke-width="2" stroke-linecap="round"/>
  
  <!-- Gauge needle - position it according to the air quality value -->
  <!-- This is set to "Fair" (position 2 out of 5) -->
  <line x1="50" y1="70" x2="30" y2="47" stroke="#2C3E50" stroke-width="3" stroke-linecap="round"/>
  <circle cx="50" cy="70" r="5" fill="#2C3E50"/>
  
  <!-- Air molecules/bubbles to represent air -->
  <circle cx="25" cy="80" r="4" fill="#3498DB" fill-opacity="0.7"/>
  <circle cx="40" cy="85" r="3" fill="#3498DB" fill-opacity="0.7"/>
  <circle cx="60" cy="85" r="4" fill="#3498DB" fill-opacity="0.7"/>
  <circle cx="75" cy="80" r="3" fill="#3498DB" fill-opacity="0.7"/>
</svg>
